PathFileType	3	(X/Y/Z)	E:\ViconData\BIOM9541 2025\Week 7\Wed1100\Hanif 90 squat 7-5 Squat 01.trc
DataRate	CameraRate	NumFrames	NumMarkers	Units	OrigDataRate	OrigDataStartFrame	OrigNumFrames
200.0	200.0	6	19	mm	200.0	1454	1661	
Frame#	Time	C7			CLAV			RBAK			LASI			RASI			LPSI			RPSI			LTHI			LKNE			LTIB			LANK			LHEE			LTOE			RTHI			RKNE			RTIB			RANK			RHEE			RTOE			
		X1	Y1	Z1	X2	Y2	Z2	X3	Y3	Z3	X4	Y4	Z4	X5	Y5	Z5	X6	Y6	Z6	X7	Y7	Z7	X8	Y8	Z8	X9	Y9	Z9	X10	Y10	Z10	X11	Y11	Z11	X12	Y12	Z12	X13	Y13	Z13	X14	Y14	Z14	X15	Y15	Z15	X16	Y16	Z16	X17	Y17	Z17	X18	Y18	Z18	X19	Y19	Z19	
1454	7.265	344.20679	1209.1954	-1229.8185	202.28052	1128.8076	-1214.6832	358.00409	1129.3809	-1381.0161	280.96497	770.23907	-1095.3875	265.57904	779.49988	-1356.5726	443.22299	836.16217	-1187.4945	440.4931	831.18579	-1261.4025	227.62802	536.20972	-950.35803	168.95679	406.94897	-925.4574	246.86057	210.38969	-931.01776	303.1955	63.171238	-969.14838	326.26208	51.017887	-1029.6736	162.65048	38.618126	-944.08337	298.20587	667.05548	-1438.2515	167.00122	392.57361	-1500.1071	195.15152	309.7034	-1502.6722	296.2955	70.9925	-1437.1091	321.40582	50.358681	-1369.9056	163.06818	40.49041	-1466.5876
1455	7.27	344.36215	1213.0803	-1229.8627	202.37059	1132.8669	-1214.7052	358.13702	1133.2438	-1381.0685	280.13181	774.13745	-1095.3402	264.99481	783.29871	-1356.4916	442.42175	840.02313	-1187.2838	439.64822	835.27075	-1261.0087	228.35703	537.68542	-951.08301	170.82765	407.85986	-926.62628	247.87341	210.90987	-931.48627	303.32141	63.173584	-969.16125	326.35449	50.951252	-1029.6479	162.67114	38.574898	-944.01416	298.01498	669.66876	-1438.0679	169.2742	393.69708	-1499.0114	197.16803	310.60507	-1501.8168	296.46332	71.016853	-1437.1166	321.4978	50.269646	-1369.9271	163.09717	40.469425	-1466.6062
1456	7.275	344.50317	1216.9281	-1229.8893	202.4688	1136.848	-1214.7664	358.25534	1136.9833	-1380.9297	279.24969	778.00177	-1095.2545	264.34799	787.0282	-1356.3591	441.65271	843.84473	-1187.1932	439.13074	839.11334	-1261.0765	229.34554	539.66119	-951.76715	172.77432	408.77768	-927.841	248.9567	211.35391	-932.04248	303.55524	63.258991	-969.07849	326.45535	50.962452	-1029.7034	162.71201	38.537643	-944.02716	297.75848	672.33093	-1437.8041	171.53062	394.84161	-1497.9628	199.18106	311.48026	-1500.9227	296.51837	70.919914	-1437.0264	321.8288	50.629166	-1370.1478	163.10522	40.457767	-1466.6718
1457	7.28	344.6181	1220.7332	-1229.8907	202.44957	1141.0365	-1214.8499	358.3035	1140.7042	-1380.9252	278.37704	781.76416	-1095.1959	263.6579	790.75922	-1356.2419	440.85345	847.68805	-1187.1553	438.37289	843.03729	-1260.8535	229.88127	540.76672	-952.51282	174.78337	409.65533	-929.16357	249.97101	211.84027	-932.54919	303.59183	63.150139	-969.13318	326.51456	50.828442	-1029.6079	162.69885	38.559566	-944.07562	297.5437	674.88873	-1437.522	173.76955	395.94797	-1496.8081	201.16142	312.40277	-1500.0166	296.77826	71.055847	-1437.1	321.62796	50.205906	-1370.0281	163.07834	40.416229	-1466.6726
1458	7.285	344.72455	1224.494	-1229.8354	202.40901	1145.0204	-1214.8114	358.4249	1144.5032	-1380.8926	277.51871	785.44501	-1095.1299	262.92654	794.53967	-1356.1219	440.00433	851.44952	-1186.7333	437.5253	846.69501	-1260.6185	230.66016	542.18677	-953.29974	176.77005	410.47745	-930.4964	251.0461	212.24977	-933.08783	303.74042	63.126133	-969.10236	326.54562	50.828465	-1029.5046	162.72693	38.55859	-944.06335	297.27527	677.52441	-1437.2753	176.05197	397.05994	-1495.6235	203.11584	313.31207	-1499.0356	296.92139	71.116661	-1437.0839	321.72501	50.192959	-1370.0769	163.04082	40.479321	-1466.6644
1459	7.29	344.84088	1228.2623	-1229.7811	201.91518	1149.4209	-1214.4243	358.548	1148.2524	-1380.8224	276.59021	789.06238	-1094.9386	262.18192	798.18561	-1355.951	439.16498	855.20642	-1186.4697	436.6001	850.60724	-1260.1705	231.66695	544.05432	-953.95703	178.78358	411.31653	-931.82501	252.15239	212.67702	-933.677	303.87061	63.10936	-969.09235	326.60446	50.804741	-1029.4104	162.71941	38.582047	-944.01453	297.06161	680.07092	-1436.938	178.32385	398.17886	-1494.509	205.08011	314.27222	-1498.1033	297.1105	71.141319	-1437.0613	321.80103	50.231026	-1370.0736	163.02396	40.497181	-1466.6677
